<?xml version="1.0" encoding="UTF-8"?>
<!-- Generator: Adobe Illustrator 16.0.0, SVG Export Plug-In . SVG Version: 6.00 Build 0)  -->
<!DOCTYPE svg PUBLIC "-//W3C//DTD SVG 1.1//EN" "http://www.w3.org/Graphics/SVG/1.1/DTD/svg11.dtd">
<svg version="1.1" id="Layer_1" xmlns="http://www.w3.org/2000/svg" xmlns:xlink="http://www.w3.org/1999/xlink" x="0px" y="0px" width="256px" height="256px" viewBox="0 0 256 256" enable-background="new 0 0 256 256" xml:space="preserve">
<rect x="0" fill="#E05C5C" width="256" height="256"/>
<path opacity="0.8" fill-rule="evenodd" clip-rule="evenodd" fill="#B94352" d="M96.435,154.169V93.568l-60.601,60.601h45.152  L0.161,234.995l-0.021-45.133L0,190.003V256h9.637l88.148-88.147l0.047,0.047c7.922-7.337,18.518-11.827,30.167-11.827  c8.192,0,15.86,2.228,22.449,6.095l7.998-7.998H96.435z"/>
<polygon opacity="0.4" fill-rule="evenodd" clip-rule="evenodd" fill="#B94352" points="0.105,112.439 18.977,93.568   18.977,130.501 49.162,140.842 96.435,93.568 96.435,154.169 113.334,154.169 173.936,93.568 173.936,123.648 235.992,61.592   18.977,61.6 18.977,17.249 0.008,36.217 0,124 0.111,124.038 "/>
<path opacity="0.6" fill-rule="evenodd" clip-rule="evenodd" fill="#B94352" d="M97.875,167.333L9.209,256l126.048-0.008  l25.744-25.742c0,0-14.813,11.263-31.793,12.084c-20.667,1-33.644-10.676-41.333-30.667  C79.542,190.001,97.875,167.333,97.875,167.333z"/>
<g>
	<path fill="#FFFFFF" d="M144.059,211.576c0,0-23.001,0-24.246,0c-1.242,0-1.969,0.207-1.969,1.037c0,0.828-0.414,2.175,1.762,2.175   c1.451,0,19.998,0,22.486,0c2.484,0,3.729,1.037,3.729,3.108c0,2.666-2.488,2.694-4.248,2.694c-1.141,0-22.277,0-25.281,0   c-3.006,0-3.834-1.14-3.834-4.456c0-3.315,0-26.731,0-26.731s-1.969,0-4.354,0c-2.383,0-3.334-1.174-3.314-2.799   c0.023-1.968,1.762-2.59,4.041-2.59s5.387,0,7.355,0s2.488,1.657,2.488,3.419s0,4.974,0,4.974h35.955L144.059,211.576z"/>
	<circle fill="#FFFFFF" cx="115.825" cy="227.379" r="4.455"/>
	<circle fill="#FFFFFF" cx="140.795" cy="227.379" r="4.455"/>
	<path fill="#FFFFFF" d="M127.999,163.533c20.38,0,36.958,16.577,36.958,36.955c0,20.379-16.578,36.957-36.958,36.957   c-20.377,0-36.955-16.578-36.955-36.957C91.043,180.11,107.622,163.533,127.999,163.533 M127.999,156.072   c-24.529,0-44.416,19.888-44.416,44.416c0,24.532,19.887,44.417,44.416,44.417c24.531,0,44.419-19.885,44.419-44.417   C172.418,175.96,152.529,156.072,127.999,156.072L127.999,156.072z"/>
</g>
<g>
	<rect x="18.977" y="17.249" fill="#FFFFFF" width="217.023" height="44.351"/>
	<rect x="67.775" y="23.06" fill="#CCCCCC" width="78.986" height="2.388"/>
	<rect x="67.775" y="46.061" fill="#CCCCCC" width="16.736" height="2.388"/>
	<rect x="201.513" y="46.565" fill="#CCCCCC" width="21.986" height="6.372"/>
	<rect x="67.775" y="51.811" fill="#CCCCCC" width="16.736" height="2.388"/>
	<rect x="67.775" y="32.852" fill="#CCCCCC" width="156.031" height="2.388"/>
	<rect x="67.775" y="37.977" fill="#CCCCCC" width="156.031" height="2.388"/>
	<path fill-rule="evenodd" clip-rule="evenodd" fill="#E05C5C" d="M33.333,52.958c0,0,4.202,1.287,9.362,1.287   c0,0,5.16,0.038,9.509-1.287l0.012-17.671l4.706,2.394c0,0,0.606,0.532,1.105-0.037c0.282-0.336,2.454-3.505,3.388-5.053   c0.441-0.743-0.034-0.801-0.034-0.801l-7.998-4.711c0,0-0.959-1.178-3.612-1.178h-2.285c0,0,0.074,4.749-4.792,4.749   c0,0-4.792-0.295-4.718-4.749h-2.286c0,0-2.727,0.221-3.686,1.178L24.96,31.19l-0.964,0.563c0,0-0.332,0.405,0.036,1.104   l3.403,4.859c0,0,0.553,0.479,1.18-0.073l4.73-2.356L33.333,52.958z"/>
</g>
<polygon opacity="0.8" fill-rule="evenodd" clip-rule="evenodd" fill="#B94352" points="127.875,87.754 114.329,74.208   141.421,74.208 "/>
<polygon fill-rule="evenodd" clip-rule="evenodd" fill="#FFFFFF" points="128,85.879 114.454,72.333 141.546,72.333 "/>
<polygon opacity="0.9" fill-rule="evenodd" clip-rule="evenodd" fill="#B94352" points="18.977,154.169 80.986,154.169   0.161,234.995 0.105,112.439 18.977,93.568 "/>
<g opacity="0.8">
	<path opacity="0.6" fill-rule="evenodd" clip-rule="evenodd" fill="#B94352" d="M105.044,162.459   c6.699-4.053,14.554-6.387,22.955-6.387c24.531,0,44.419,19.888,44.419,44.416c0,9.152-2.771,17.655-7.515,24.723l71.042-71.042   h-62.01V93.568L105.044,162.459z"/>
</g>
<g>
	<rect x="18.977" y="93.568" fill="#FFFFFF" width="62.01" height="60.601"/>
	<rect x="24.793" y="140.379" fill="#CCCCCC" width="21.115" height="2.388"/>
	<rect x="24.793" y="145.546" fill="#CCCCCC" width="38.948" height="2.388"/>
	<path fill-rule="evenodd" clip-rule="evenodd" fill="#E05C5C" d="M38.341,132.794c0,0,4.981,1.525,11.099,1.525   c0,0,6.117,0.045,11.272-1.525l0.015-20.948l5.578,2.837c0,0,0.719,0.631,1.311-0.044c0.334-0.398,2.909-4.155,4.017-5.99   c0.522-0.881-0.04-0.949-0.04-0.949l-9.481-5.586c0,0-1.137-1.396-4.282-1.396h-2.709c0,0,0.088,5.629-5.68,5.629   c0,0-5.681-0.35-5.593-5.629h-2.71c0,0-3.232,0.262-4.369,1.396l-8.353,4.875l-1.143,0.667c0,0-0.394,0.479,0.043,1.309l4.034,5.76   c0,0,0.655,0.567,1.398-0.087l5.607-2.793L38.341,132.794z"/>
</g>
<g>
	<rect x="96.478" y="93.568" fill="#FFFFFF" width="62.01" height="60.601"/>
	<rect x="102.294" y="140.379" fill="#CCCCCC" width="21.115" height="2.388"/>
	<rect x="102.294" y="145.546" fill="#CCCCCC" width="38.949" height="2.388"/>
	<path fill-rule="evenodd" clip-rule="evenodd" fill="#FFB820" d="M151.643,107.057c0,0,0.854,0.074,0.282,1.035   c-0.636,1.952-1.304,3.954-1.523,4.769c-0.647,0.736-1.433,0.047-1.433,0.047l-12.014-2.949l-0.017,22.785   c-5.633,1.713-9.261,1.665-9.261,1.665c-6.683,0-9.071-1.665-9.071-1.665l0.064-22.785l-12.332,2.569   c-1.193,0.666-1.529,0.095-1.529,0.095l-1.256-4.281c-0.478-0.904-0.048-1.427-0.048-1.427l1.25-0.395   c11.075-4.233,13.852-5.694,13.852-5.694h4.393c0,2.901,4.679,2.996,4.679,2.996c4.392,0,4.487-2.996,4.487-2.996h4.679   C138.77,100.588,151.643,107.057,151.643,107.057z"/>
</g>
<g>
	<rect x="173.979" y="93.568" fill="#FFFFFF" width="62.01" height="60.601"/>
	<rect x="179.795" y="140.379" fill="#CCCCCC" width="21.115" height="2.388"/>
	<rect x="179.795" y="145.546" fill="#CCCCCC" width="38.949" height="2.388"/>
	<path fill-rule="evenodd" clip-rule="evenodd" fill="#ACC943" d="M188.764,115.59c-0.717,0.631-1.348,0.084-1.348,0.084   l-3.888-5.555c-0.421-0.8-0.042-1.263-0.042-1.263l1.102-0.643L188.764,115.59z M185.891,107.453l6.747-3.94   c1.094-1.094,4.21-1.346,4.21-1.346h2.61c-0.084,5.092,5.39,5.428,5.39,5.428c5.558,0,5.474-5.428,5.474-5.428h2.61   c3.031,0,4.127,1.346,4.127,1.346l6.729,3.968l-4.063,7.451l-3.999-2.035l-0.014,20.198c-4.969,1.515-10.863,1.474-10.863,1.474   c-5.895,0-10.694-1.474-10.694-1.474l0.014-20.198l-4.123,2.055L185.891,107.453z M221.101,115.632c0,0,0.692,0.609,1.263-0.042   c0.32-0.384,2.803-4.007,3.869-5.776c0.504-0.85-0.038-0.915-0.038-0.915l-1.008-0.594L221.101,115.632z"/>
</g>
</svg>